<svg xmlns="http://www.w3.org/2000/svg" width="64" height="64" viewBox="0 0 512 512">
  <defs>
    <linearGradient id="bg" x1="0" y1="0" x2="1" y2="1">
      <stop offset="0" stop-color="#1D9E75"/>
      <stop offset="1" stop-color="#0F6E56"/>
    </linearGradient>
  </defs>
  <rect width="512" height="512" rx="112" ry="112" fill="url(#bg)"/>
  <path d="M 256 101 C 276 106 383 129 392 163 L 392 281 C 392 293 387 324 345 355 C 313 371 281 396 256 411 C 231 396 199 371 167 355 C 125 324 120 293 120 281 L 120 163 C 129 129 236 106 256 101 Z" fill="none" stroke="#E1F5EE" stroke-width="5" stroke-linejoin="round"/>
  <polygon points="190,215 285,215 285,201 326,231 285,261 285,246 190,246" fill="#E1F5EE"/>
  <polygon points="322,266 227,266 227,251 186,281 227,311 227,297 322,297" fill="#9FE1CB"/>
</svg>
